{
  "accessors": [
    {
      "bufferView": 1,
      "componentType": 5126,
      "count": 65532,
      "max": [
        -4.5839996337890625,
        61.358673095703125,
        374.08538818359375
      ],
      "min": [
        -187.99789428710938,
        -69.6455307006836,
        283.8162841796875
      ],
      "type": "VEC3"
    },
    {
      "bufferView": 1,
      "byteOffset": 786384,
      "componentType": 5126,
      "count": 65532,
      "max": [
        0.9999990463256836,
        0.9999990463256836,
        0.9999990463256836
      ],
      "min": [
        -0.9999990463256836,
        -0.9996583461761475,
        -0.9996692538261414
      ],
      "type": "VEC3"
    },
    {
      "bufferView": 2,
      "componentType": 5126,
      "count": 65532,
      "max": [
        1.0,
        1.0,
        1.0,
        1.0
      ],
      "min": [
        0.007843137718737125,
        0.01568627543747425,
        0.027450980618596077,
        1.0
      ],
      "type": "VEC4"
    },
    {
      "bufferView": 0,
      "componentType": 5125,
      "count": 338601,
      "type": "SCALAR"
    },
    {
      "bufferView": 1,
      "byteOffset": 1572768,
      "componentType": 5126,
      "count": 65532,
      "max": [
        40.81535339355469,
        69.04248046875,
        355.524169921875
      ],
      "min": [
        -188.05435180664063,
        -70.6515121459961,
        251.87371826171875
      ],
      "type": "VEC3"
    },
    {
      "bufferView": 1,
      "byteOffset": 2359152,
      "componentType": 5126,
      "count": 65532,
      "max": [
        0.9999990463256836,
        0.9999990463256836,
        0.9999990463256836
      ],
      "min": [
        -0.9999990463256836,
        -0.9999874830245972,
        -0.9999990463256836
      ],
      "type": "VEC3"
    },
    {
      "bufferView": 2,
      "byteOffset": 1048512,
      "componentType": 5126,
      "count": 65532,
      "max": [
        1.0,
        1.0,
        1.0,
        1.0
      ],
      "min": [
        0.007843137718737125,
        0.0117647061124444,
        0.027450980618596077,
        1.0
      ],
      "type": "VEC4"
    },
    {
      "bufferView": 0,
      "byteOffset": 1354404,
      "componentType": 5125,
      "count": 327339,
      "type": "SCALAR"
    },
    {
      "bufferView": 1,
      "byteOffset": 3145536,
      "componentType": 5126,
      "count": 65532,
      "max": [
        84.40512084960938,
        41.57279968261719,
        337.9231262207031
      ],
      "min": [
        -188.2010498046875,
        -71.61603546142578,
        237.53213500976563
      ],
      "type": "VEC3"
    },
    {
      "bufferView": 1,
      "byteOffset": 3931920,
      "componentType": 5126,
      "count": 65532,
      "max": [
        0.9999990463256836,
        0.9999990463256836,
        0.9996179938316345
      ],
      "min": [
        -0.9999914169311523,
        -0.9998753666877747,
        -0.999995231628418
      ],
      "type": "VEC3"
    },
    {
      "bufferView": 2,
      "byteOffset": 2097024,
      "componentType": 5126,
      "count": 65532,
      "max": [
        0.9372549057006836,
        0.9607843160629272,
        0.9882352948188782,
        1.0
      ],
      "min": [
        0.0,
        0.0,
        0.05098039284348488,
        1.0
      ],
      "type": "VEC4"
    },
    {
      "bufferView": 0,
      "byteOffset": 2663760,
      "componentType": 5125,
      "count": 317136,
      "type": "SCALAR"
    },
    {
      "bufferView": 1,
      "byteOffset": 4718304,
      "componentType": 5126,
      "count": 65532,
      "max": [
        113.91110229492188,
        55.04975891113281,
        334.15362548828125
      ],
      "min": [
        -171.70065307617188,
        -73.13455200195313,
        226.45001220703125
      ],
      "type": "VEC3"
    },
    {
      "bufferView": 1,
      "byteOffset": 5504688,
      "componentType": 5126,
      "count": 65532,
      "max": [
        0.9999990463256836,
        0.999983549118042,
        0.9999990463256836
      ],
      "min": [
        -0.999995231628418,
        -0.9999759197235107,
        -0.9999990463256836
      ],
      "type": "VEC3"
    },
    {
      "bufferView": 2,
      "byteOffset": 3145536,
      "componentType": 5126,
      "count": 65532,
      "max": [
        0.9411764740943909,
        0.9764705896377563,
        1.0,
        1.0
      ],
      "min": [
        0.0,
        0.0,
        0.01568627543747425,
        1.0
      ],
      "type": "VEC4"
    },
    {
      "bufferView": 0,
      "byteOffset": 3932304,
      "componentType": 5125,
      "count": 323091,
      "type": "SCALAR"
    },
    {
      "bufferView": 1,
      "byteOffset": 6291072,
      "componentType": 5126,
      "count": 65532,
      "max": [
        114.4788818359375,
        57.44734191894531,
        334.52703857421875
      ],
      "min": [
        -167.0093994140625,
        -61.19657897949219,
        191.50363159179688
      ],
      "type": "VEC3"
    },
    {
      "bufferView": 1,
      "byteOffset": 7077456,
      "componentType": 5126,
      "count": 65532,
      "max": [
        0.9999168515205383,
        0.999995231628418,
        0.9997657537460327
      ],
      "min": [
        -0.9996597170829773,
        -0.9994369149208069,
        -0.9999990463256836
      ],
      "type": "VEC3"
    },
    {
      "bufferView": 2,
      "byteOffset": 4194048,
      "componentType": 5126,
      "count": 65532,
      "max": [
        0.95686274766922,
        1.0,
        1.0,
        1.0
      ],
      "min": [
        0.0117647061124444,
        0.05882352963089943,
        0.09019608050584793,
        1.0
      ],
      "type": "VEC4"
    },
    {
      "bufferView": 0,
      "byteOffset": 5224668,
      "componentType": 5125,
      "count": 334170,
      "type": "SCALAR"
    },
    {
      "bufferView": 1,
      "byteOffset": 7863840,
      "componentType": 5126,
      "count": 65532,
      "max": [
        112.7740478515625,
        71.41702270507813,
        369.5411682128906
      ],
      "min": [
        -175.61199951171875,
        -62.75640869140625,
        190.44091796875
      ],
      "type": "VEC3"
    },
    {
      "bufferView": 1,
      "byteOffset": 8650224,
      "componentType": 5126,
      "count": 65532,
      "max": [
        0.9999990463256836,
        0.9999990463256836,
        0.9999990463256836
      ],
      "min": [
        -0.9999990463256836,
        -0.9992610812187195,
        -0.9999836683273315
      ],
      "type": "VEC3"
    },
    {
      "bufferView": 2,
      "byteOffset": 5242560,
      "componentType": 5126,
      "count": 65532,
      "max": [
        0.9843137264251709,
        1.0,
        1.0,
        1.0
      ],
      "min": [
        0.0117647061124444,
        0.01568627543747425,
        0.027450980618596077,
        1.0
      ],
      "type": "VEC4"
    },
    {
      "bufferView": 0,
      "byteOffset": 6561348,
      "componentType": 5125,
      "count": 325722,
      "type": "SCALAR"
    },
    {
      "bufferView": 1,
      "byteOffset": 9436608,
      "componentType": 5126,
      "count": 65532,
      "max": [
        36.93098449707031,
        79.69528198242188,
        331.40423583984375
      ],
      "min": [
        -183.5091094970703,
        -65.54901885986328,
        261.65203857421875
      ],
      "type": "VEC3"
    },
    {
      "bufferView": 1,
      "byteOffset": 10222992,
      "componentType": 5126,
      "count": 65532,
      "max": [
        0.9999990463256836,
        0.9999990463256836,
        0.9999759197235107
      ],
      "min": [
        -0.9999990463256836,
        -0.9999990463256836,
        -0.9999990463256836
      ],
      "type": "VEC3"
    },
    {
      "bufferView": 2,
      "byteOffset": 6291072,
      "componentType": 5126,
      "count": 65532,
      "max": [
        0.9725490212440491,
        1.0,
        1.0,
        1.0
      ],
      "min": [
        0.003921568859368563,
        0.003921568859368563,
        0.0235294122248888,
        1.0
      ],
      "type": "VEC4"
    },
    {
      "bufferView": 0,
      "byteOffset": 7864236,
      "componentType": 5125,
      "count": 330642,
      "type": "SCALAR"
    },
    {
      "bufferView": 1,
      "byteOffset": 11009376,
      "componentType": 5126,
      "count": 65532,
      "max": [
        113.21694946289063,
        66.20646667480469,
        305.9805603027344
      ],
      "min": [
        -188.2010498046875,
        -72.85636138916016,
        228.40567016601563
      ],
      "type": "VEC3"
    },
    {
      "bufferView": 1,
      "byteOffset": 11795760,
      "componentType": 5126,
      "count": 65532,
      "max": [
        0.9998757839202881,
        0.9999990463256836,
        0.9999990463256836
      ],
      "min": [
        -0.999995231628418,
        -0.9999759197235107,
        -0.9936554431915283
      ],
      "type": "VEC3"
    },
    {
      "bufferView": 2,
      "byteOffset": 7339584,
      "componentType": 5126,
      "count": 65532,
      "max": [
        0.9176470637321472,
        0.9725490212440491,
        1.0,
        1.0
      ],
      "min": [
        0.0,
        0.0,
        0.003921568859368563,
        1.0
      ],
      "type": "VEC4"
    },
    {
      "bufferView": 0,
      "byteOffset": 9186804,
      "componentType": 5125,
      "count": 316806,
      "type": "SCALAR"
    },
    {
      "bufferView": 1,
      "byteOffset": 12582144,
      "componentType": 5126,
      "count": 65532,
      "max": [
        114.50640869140625,
        86.2265625,
        374.08538818359375
      ],
      "min": [
        -187.34451293945313,
        -73.13455200195313,
        190.50042724609375
      ],
      "type": "VEC3"
    },
    {
      "bufferView": 1,
      "byteOffset": 13368528,
      "componentType": 5126,
      "count": 65532,
      "max": [
        0.9999990463256836,
        0.9999990463256836,
        0.9999990463256836
      ],
      "min": [
        -0.9999990463256836,
        -0.9999990463256836,
        -0.9999990463256836
      ],
      "type": "VEC3"
    },
    {
      "bufferView": 2,
      "byteOffset": 8388096,
      "componentType": 5126,
      "count": 65532,
      "max": [
        0.9921568632125854,
        1.0,
        1.0,
        1.0
      ],
      "min": [
        0.0,
        0.0,
        0.0235294122248888,
        1.0
      ],
      "type": "VEC4"
    },
    {
      "bufferView": 0,
      "byteOffset": 10454028,
      "componentType": 5125,
      "count": 264933,
      "type": "SCALAR"
    },
    {
      "bufferView": 1,
      "byteOffset": 14154912,
      "componentType": 5126,
      "count": 65532,
      "max": [
        114.05682373046875,
        83.52291870117188,
        373.5915222167969
      ],
      "min": [
        -188.05435180664063,
        -72.93058776855469,
        190.44091796875
      ],
      "type": "VEC3"
    },
    {
      "bufferView": 1,
      "byteOffset": 14941296,
      "componentType": 5126,
      "count": 65532,
      "max": [
        0.9999990463256836,
        0.9999990463256836,
        0.9999990463256836
      ],
      "min": [
        -0.9999990463256836,
        -0.9999990463256836,
        -0.999995231628418
      ],
      "type": "VEC3"
    },
    {
      "bufferView": 2,
      "byteOffset": 9436608,
      "componentType": 5126,
      "count": 65532,
      "max": [
        0.9843137264251709,
        1.0,
        1.0,
        1.0
      ],
      "min": [
        0.007843137718737125,
        0.007843137718737125,
        0.01568627543747425,
        1.0
      ],
      "type": "VEC4"
    },
    {
      "bufferView": 0,
      "byteOffset": 11513760,
      "componentType": 5125,
      "count": 197193,
      "type": "SCALAR"
    },
    {
      "bufferView": 1,
      "byteOffset": 15727680,
      "componentType": 5126,
      "count": 56862,
      "max": [
        114.32598876953125,
        83.8677978515625,
        373.29376220703125
      ],
      "min": [
        -187.50405883789063,
        -72.95284271240234,
        190.49810791015625
      ],
      "type": "VEC3"
    },
    {
      "bufferView": 1,
      "byteOffset": 16410024,
      "componentType": 5126,
      "count": 56862,
      "max": [
        0.9999990463256836,
        0.9999990463256836,
        0.9999990463256836
      ],
      "min": [
        -0.9999990463256836,
        -0.9999758005142212,
        -0.9975576996803284
      ],
      "type": "VEC3"
    },
    {
      "bufferView": 2,
      "byteOffset": 10485120,
      "componentType": 5126,
      "count": 56862,
      "max": [
        0.95686274766922,
        1.0,
        1.0,
        1.0
      ],
      "min": [
        0.0,
        0.0,
        0.01568627543747425,
        1.0
      ],
      "type": "VEC4"
    },
    {
      "bufferView": 0,
      "byteOffset": 12302532,
      "componentType": 5125,
      "count": 110325,
      "type": "SCALAR"
    }
  ],
  "asset": {
    "extras": {
      "author": "Andreas Kontny (https://sketchfab.com/Andreas.Kontny)",
      "license": "CC-BY-4.0 (http://creativecommons.org/licenses/by/4.0/)",
      "source": "https://sketchfab.com/3d-models/nike-air-force-1-0345578c814a4e2786a388095af332a9",
      "title": "Nike Air Force 1"
    },
    "generator": "Sketchfab-16.87.0",
    "version": "2.0"
  },
  "bufferViews": [
    {
      "buffer": 0,
      "byteLength": 12743832,
      "name": "floatBufferViews",
      "target": 34963
    },
    {
      "buffer": 0,
      "byteLength": 17092368,
      "byteOffset": 12743832,
      "byteStride": 12,
      "name": "floatBufferViews",
      "target": 34962
    },
    {
      "buffer": 0,
      "byteLength": 11394912,
      "byteOffset": 29836200,
      "byteStride": 16,
      "name": "floatBufferViews",
      "target": 34962
    }
  ],
  "buffers": [
    {
      "byteLength": 41231112,
      "uri": "scene.bin"
    }
  ],
  "extensionsUsed": [
    "KHR_materials_specular"
  ],
  "materials": [
    {
      "doubleSided": true,
      "extensions": {
        "KHR_materials_specular": {
          "specularColorFactor": [
            1.0,
            1.0,
            1.0
          ],
          "specularFactor": 0.0
        }
      },
      "name": "Scene_-_Root",
      "pbrMetallicRoughness": {
        "metallicFactor": 0.0,
        "roughnessFactor": 0.9129195502163129
      }
    }
  ],
  "meshes": [
    {
      "name": "Object_0",
      "primitives": [
        {
          "attributes": {
            "COLOR_0": 2,
            "NORMAL": 1,
            "POSITION": 0
          },
          "indices": 3,
          "material": 0,
          "mode": 4
        }
      ]
    },
    {
      "name": "Object_1",
      "primitives": [
        {
          "attributes": {
            "COLOR_0": 6,
            "NORMAL": 5,
            "POSITION": 4
          },
          "indices": 7,
          "material": 0,
          "mode": 4
        }
      ]
    },
    {
      "name": "Object_2",
      "primitives": [
        {
          "attributes": {
            "COLOR_0": 10,
            "NORMAL": 9,
            "POSITION": 8
          },
          "indices": 11,
          "material": 0,
          "mode": 4
        }
      ]
    },
    {
      "name": "Object_3",
      "primitives": [
        {
          "attributes": {
            "COLOR_0": 14,
            "NORMAL": 13,
            "POSITION": 12
          },
          "indices": 15,
          "material": 0,
          "mode": 4
        }
      ]
    },
    {
      "name": "Object_4",
      "primitives": [
        {
          "attributes": {
            "COLOR_0": 18,
            "NORMAL": 17,
            "POSITION": 16
          },
          "indices": 19,
          "material": 0,
          "mode": 4
        }
      ]
    },
    {
      "name": "Object_5",
      "primitives": [
        {
          "attributes": {
            "COLOR_0": 22,
            "NORMAL": 21,
            "POSITION": 20
          },
          "indices": 23,
          "material": 0,
          "mode": 4
        }
      ]
    },
    {
      "name": "Object_6",
      "primitives": [
        {
          "attributes": {
            "COLOR_0": 26,
            "NORMAL": 25,
            "POSITION": 24
          },
          "indices": 27,
          "material": 0,
          "mode": 4
        }
      ]
    },
    {
      "name": "Object_7",
      "primitives": [
        {
          "attributes": {
            "COLOR_0": 30,
            "NORMAL": 29,
            "POSITION": 28
          },
          "indices": 31,
          "material": 0,
          "mode": 4
        }
      ]
    },
    {
      "name": "Object_8",
      "primitives": [
        {
          "attributes": {
            "COLOR_0": 34,
            "NORMAL": 33,
            "POSITION": 32
          },
          "indices": 35,
          "material": 0,
          "mode": 4
        }
      ]
    },
    {
      "name": "Object_9",
      "primitives": [
        {
          "attributes": {
            "COLOR_0": 38,
            "NORMAL": 37,
            "POSITION": 36
          },
          "indices": 39,
          "material": 0,
          "mode": 4
        }
      ]
    },
    {
      "name": "Object_10",
      "primitives": [
        {
          "attributes": {
            "COLOR_0": 42,
            "NORMAL": 41,
            "POSITION": 40
          },
          "indices": 43,
          "material": 0,
          "mode": 4
        }
      ]
    }
  ],
  "nodes": [
    {
      "children": [
        1
      ],
      "matrix": [
        0.97173011302948,
        0.17199423909187314,
        0.16173624992370608,
        0.0,
        0.0,
        0.6850486993789674,
        -0.7284973263740538,
        0.0,
        -0.23609454929828644,
        0.7079027295112609,
        0.6656824350357057,
        0.0,
        0.0,
        0.0,
        0.0,
        1.0
      ],
      "name": "Sketchfab_model"
    },
    {
      "children": [
        2,
        3,
        4,
        5,
        6,
        7,
        8,
        9,
        10,
        11,
        12
      ],
      "name": "Geode"
    },
    {
      "mesh": 0,
      "name": "Object_2"
    },
    {
      "mesh": 1,
      "name": "Object_3"
    },
    {
      "mesh": 2,
      "name": "Object_4"
    },
    {
      "mesh": 3,
      "name": "Object_5"
    },
    {
      "mesh": 4,
      "name": "Object_6"
    },
    {
      "mesh": 5,
      "name": "Object_7"
    },
    {
      "mesh": 6,
      "name": "Object_8"
    },
    {
      "mesh": 7,
      "name": "Object_9"
    },
    {
      "mesh": 8,
      "name": "Object_10"
    },
    {
      "mesh": 9,
      "name": "Object_11"
    },
    {
      "mesh": 10,
      "name": "Object_12"
    }
  ],
  "scene": 0,
  "scenes": [
    {
      "name": "Sketchfab_Scene",
      "nodes": [
        0
      ]
    }
  ]
}
